<?xml version="1.0" encoding="utf-8"?>
<!-- Generator: Adobe Illustrator 19.0.0, SVG Export Plug-In . SVG Version: 6.00 Build 0)  -->
<svg version="1.1" id="Layer_1" xmlns="http://www.w3.org/2000/svg" xmlns:xlink="http://www.w3.org/1999/xlink" x="0px" y="0px"
	 viewBox="0 137.7 960 286.3" style="enable-background:new 0 137.7 960 286.3;" xml:space="preserve">
<style type="text/css">
	.st0{fill:#DEDEDE;}
</style>
<g id="XMLID_23_">
	<path id="XMLID_46_" class="st0" d="M182.9,387.6c-9.7,0-19.4-3.7-26.8-11.1c-14.8-14.8-14.8-38.7,0-53.5l158.1-157.9
		c10.8-10.8,27.7-14,41.8-8.2c14.1,5.9,24,19.7,24,35V286c0,20.9-17.1,37.8-38,37.8s-38-16.9-38-37.8v-2.8l-93.9,93.4
		C202.7,383.9,192.5,387.6,182.9,387.6z"/>
</g>
<circle id="XMLID_15_" class="st0" cx="341" cy="377.6" r="37.8"/>
<path id="XMLID_48_" class="st0" d="M167.7,186c-8.9,0.6-17.5,4.2-24.3,11L17.2,323.2c-14.8,14.8-14.8,38.7,0,53.5
	c7.4,7.4,17.1,11.1,26.8,11.1s19.4-3.7,26.8-11.1L197,250.5c6.3-6.3,9.9-14.2,10.8-22.4C185.9,226.2,168.5,208.2,167.7,186z"/>
<circle id="XMLID_13_" class="st0" cx="211.5" cy="184.4" r="37.8"/>
<path id="XMLID_16_" class="st0" d="M450.9,236.5l17,39.9l17-39.9c2.2-4.8,7-7.9,12.2-7.9l0,0c7.4,0,13.4,6,13.4,13.4v55.1
	c0,4.9-4,9-9,9l0,0c-4.9,0-8.9-4-9-8.9l-0.1-40.1l-15.6,39.3c-1.5,3.7-5.1,6.2-9.1,6.2l0,0c-4,0-7.6-2.4-9.1-6.2L443,257.1v40.1
	c0,5-4,9-9,9l0,0c-5,0-9-4-9-9v-55c0-7.4,6-13.4,13.4-13.4l0,0C443.9,228.6,448.7,231.7,450.9,236.5z"/>
<path id="XMLID_18_" class="st0" d="M583.6,276.2c0,18.5-13,30.6-32.7,30.6s-32.6-12.2-32.6-30.6c0-18.3,12.9-30.5,32.6-30.5
	S583.6,257.8,583.6,276.2z M538.1,276.4c0,8.9,5.2,14.9,12.8,14.9c7.7,0,12.9-6,12.9-14.9c0-8.8-5.2-14.8-12.9-14.8
	C543.3,261.6,538.1,267.5,538.1,276.4z"/>
<path id="XMLID_21_" class="st0" d="M652.4,268.4v27.9c0,5.4-4.4,9.8-9.8,9.8l0,0c-5.4,0-9.8-4.4-9.8-9.8V274
	c0-6.7-4-10.9-10.2-10.9c-6.6,0.1-10.9,4.6-11.7,11.4v21.8c0,5.4-4.4,9.8-9.8,9.8l0,0c-5.4,0-9.8-4.4-9.8-9.8v-40.2
	c0-5.4,4.4-9.7,9.7-9.7h0.2c5.4,0,9.7,4.4,9.7,9.7l0,0c4.2-6.9,11.1-10.5,19.8-10.5C643.8,245.6,652.4,254.4,652.4,268.4z"/>
<path id="XMLID_25_" class="st0" d="M680.6,256.1v40.2c0,5.4-4.4,9.8-9.8,9.8l0,0c-5.4,0-9.8-4.4-9.8-9.8v-40.2
	c0-5.4,4.4-9.8,9.8-9.8l0,0C676.3,246.3,680.6,250.7,680.6,256.1z"/>
<path id="XMLID_24_" class="st0" d="M679.9,233.3c0,5.2-3.8,8.9-9,8.9s-8.9-3.8-8.9-8.9c0-5.3,3.8-9.1,8.9-9.1
	C676.1,224.2,679.9,228,679.9,233.3z"/>
<path id="XMLID_26_" class="st0" d="M729.9,255.8L729.9,255.8c0,4-2.9,7.3-6.8,7.9c-7.1,1.1-11.6,5.5-12.4,11.9v20.7
	c0,5.4-4.4,9.8-9.8,9.8l0,0c-5.4,0-9.8-4.4-9.8-9.8v-40.1c0-5.4,4.4-9.8,9.8-9.8l0,0c5.4,0,9.8,4.4,9.8,9.8v0.1
	c1.8-3.1,4.2-5.5,7-7.3C722.9,245.6,729.9,249.5,729.9,255.8z"/>
<path id="XMLID_28_" class="st0" d="M787.6,267.2v32.2c0,3.7-3,6.7-6.7,6.7H775c-3.7,0-6.7-3-6.7-6.7l0,0c-3.9,5-9.9,7.6-18,7.6
	c-12.8,0-20.4-7.7-20.4-18.7c0-11.4,8.1-17.9,22.9-18.1h15.6v-0.7c0-5.6-3.9-8.9-11.4-8.9c-3.3,0-7.4,0.7-11.6,2.2
	c-3.6,1.2-7.6-0.5-9-4l0,0c-1.5-3.8,0.4-8.1,4.2-9.4c6.8-2.4,13.5-3.7,20.9-3.7C777.9,245.6,787.5,253.5,787.6,267.2z M768.3,285.9
	v-5.2h-11.7c-5.5,0-8.3,2-8.3,6.2c0,4.1,3,6.7,8.1,6.7C762.2,293.6,767.1,290.4,768.3,285.9z"/>
<path id="XMLID_31_" class="st0" d="M833.4,296.7c1.1,4-1.4,8.1-5.4,9.1c-2.9,0.7-6,1.1-9.1,1.1c-11.6,0.1-20-6.7-20-19.1v-25.6
	h-1.8c-3.6,0-6.5-2.9-6.5-6.5l0,0c0-3.6,2.9-6.5,6.5-6.5h1.8v-6.8c0-5.4,4.4-9.8,9.8-9.8l0,0c5.4,0,9.8,4.4,9.8,9.8v6.8h9
	c3.6,0,6.5,2.9,6.5,6.5l0,0c0,3.6-2.9,6.5-6.5,6.5h-9v22.5c0,4.4,2,6.4,5.4,6.3c0.3,0,0.7,0,1-0.1c3.8-0.4,7.3,1.7,8.3,5.4
	L833.4,296.7z"/>
<path id="XMLID_33_" class="st0" d="M885.2,281.5h-28.5c1.9,6.7,6.9,10.5,13.6,10.5c3.4,0,6.7-0.9,9.8-2.7c2.9-1.7,6.6-1,8.9,1.3
	l0,0c3.3,3.3,2.8,8.9-1.2,11.3c-5.3,3.2-11.8,4.9-19.3,4.9c-19.6,0-31.6-12-31.6-30.3c0-18.6,12.5-30.8,31.2-30.8
	c15.4,0,25.2,7.6,28.8,20.3C899,273.7,893.3,281.5,885.2,281.5z M879.2,271c0-6.9-4.4-11.5-11.1-11.5c-6.4,0-10.6,4.6-11.9,11.5
	H879.2z"/>
<path id="XMLID_36_" class="st0" d="M926.9,259.1c-3.3,0-5.6,1.2-5.6,3.8c0,7.8,31.4,4.1,31.3,24.9c0,12.3-10.7,19.2-25.3,19.2
	c-7.6,0-14.9-1.6-21.1-4.8c-3.4-1.7-4.7-6-3-9.4l0,0c1.8-3.6,6.1-5,9.7-3.2c5,2.4,10.2,3.7,14.9,3.7c3.6,0,6.3-1.2,6.3-3.6
	c0-8.2-30.8-4.1-30.8-24.8c0-12.5,10.5-19.3,24.5-19.3c6.1,0,12.2,1.2,17.9,3.5c3.9,1.6,5.5,6.3,3.6,10.1l0,0
	c-1.8,3.4-5.8,4.8-9.4,3.3C934.8,260.3,930.4,259.1,926.9,259.1z"/>
<g id="XMLID_2_">
	<path id="XMLID_3_" class="st0" d="M430,349.9c0,0.9-0.6,1.5-1.4,1.5s-1.4-0.6-1.4-1.5c0-0.9,0.6-1.5,1.4-1.5S430,349,430,349.9z"
		/>
	<path id="XMLID_5_" class="st0" d="M435.4,349.9c0,0.9-0.6,1.5-1.4,1.5s-1.4-0.6-1.4-1.5c0-0.9,0.6-1.5,1.4-1.5
		S435.4,349,435.4,349.9z"/>
	<path id="XMLID_7_" class="st0" d="M440.9,349.9c0,0.9-0.6,1.5-1.4,1.5s-1.4-0.6-1.4-1.5c0-0.9,0.6-1.5,1.4-1.5
		S440.9,349,440.9,349.9z"/>
	<path id="XMLID_12_" class="st0" d="M451.1,350.4c-1,0.6-2,0.9-3,0.9c-1.8,0-3.4-1-3.4-3.5v-6.3H443v-2h1.7v-3.3h2.6v3.3h3.6v2
		h-3.6v5.8c0,1.3,0.5,1.6,1.3,1.6c0.5,0,1.1-0.2,1.8-0.5L451.1,350.4z"/>
	<path id="XMLID_39_" class="st0" d="M465.7,343.7v7.5h-2.6v-6.8c0-1.8-1.1-2.9-2.9-2.9c-2.2,0-3.5,1.6-3.5,3.8v6h-2.6v-16.9h2.6
		v7.1c0.9-1.7,2.4-2.5,4.5-2.5C464,339,465.7,340.8,465.7,343.7z"/>
	<path id="XMLID_41_" class="st0" d="M480.3,346.1h-9.1c0.4,1.9,1.8,3,3.8,3c1.3,0,2.5-0.5,3.4-1.4l1.4,1.5c-1.2,1.3-2.9,2-5,2
		c-3.7,0-6.2-2.5-6.2-6.1c0-3.7,2.5-6.1,6.1-6.2C478.9,339,480.7,341.8,480.3,346.1z M478.1,344.2c-0.1-2-1.4-3.1-3.4-3.1
		c-1.9,0-3.3,1.2-3.5,3.1H478.1z"/>
	<path id="XMLID_44_" class="st0" d="M497.6,339v2.5c-2.4-0.1-4,1.3-4.2,3.4v6.3h-2.6v-12.1h2.6v2.4
		C494.2,339.9,495.7,339,497.6,339z"/>
	<path id="XMLID_47_" class="st0" d="M507,351.2v-1.5c-0.9,1.1-2.3,1.6-4,1.6c-2.6,0-4.3-1.6-4.3-3.8c0-2.2,1.7-3.6,4.6-3.6h3.7
		v-0.4c0-1.5-1-2.4-2.9-2.4c-1.2,0-2.4,0.4-3.6,1.2l-1.1-1.8c1.7-1,2.9-1.5,5.2-1.5c3.1,0,4.9,1.6,4.9,4.3v7.9H507z M507,346.9v-1.1
		h-3.3c-1.7,0-2.5,0.5-2.5,1.6c0,1.1,0.9,1.8,2.3,1.8C505.4,349.2,506.8,348.3,507,346.9z"/>
	<path id="XMLID_51_" class="st0" d="M520.4,350.4c-1,0.6-2,0.9-3,0.9c-1.8,0-3.4-1-3.4-3.5v-6.3h-1.7v-2h1.7v-3.3h2.6v3.3h3.6v2
		h-3.6v5.8c0,1.3,0.5,1.6,1.3,1.6c0.5,0,1.1-0.2,1.8-0.5L520.4,350.4z"/>
	<path id="XMLID_53_" class="st0" d="M533.8,346.1h-9.1c0.4,1.9,1.8,3,3.8,3c1.3,0,2.5-0.5,3.4-1.4l1.4,1.5c-1.2,1.3-2.9,2-5,2
		c-3.7,0-6.2-2.5-6.2-6.1c0-3.7,2.5-6.1,6.1-6.2C532.4,339,534.1,341.8,533.8,346.1z M531.5,344.2c-0.1-2-1.4-3.1-3.4-3.1
		c-1.9,0-3.3,1.2-3.5,3.1H531.5z"/>
	<path id="XMLID_56_" class="st0" d="M547.1,335.6c0,0.9-0.7,1.5-1.5,1.5c-0.9,0-1.5-0.7-1.5-1.5c0-0.9,0.7-1.6,1.5-1.6
		C546.4,334.1,547.1,334.7,547.1,335.6z M546.8,339.1v12.1h-2.6v-12.1H546.8z"/>
	<path id="XMLID_59_" class="st0" d="M562.7,343.7v7.5h-2.6v-6.8c0-1.8-1.1-2.9-2.9-2.9c-2,0-3.3,1.4-3.4,3.3v6.4h-2.6v-12.1h2.6
		v2.3c0.9-1.7,2.4-2.4,4.5-2.4C561.1,339,562.7,340.8,562.7,343.7z"/>
	<path id="XMLID_61_" class="st0" d="M574.8,355.7c-1.1,0-2-0.3-2.8-1l1.1-2c0.6,0.4,1,0.6,1.6,0.6c0.8,0,1.4-0.4,1.8-1.3l0.4-0.9
		l-5-11.9h2.7l3.6,9.2l3.4-9.2h2.6l-5.5,13.8C578,354.8,576.6,355.7,574.8,355.7z"/>
	<path id="XMLID_63_" class="st0" d="M597.6,345.1c0,3.7-2.6,6.2-6.3,6.2c-3.8,0-6.3-2.5-6.3-6.2c0-3.6,2.6-6.1,6.3-6.1
		S597.6,341.5,597.6,345.1z M587.5,345.2c0,2.3,1.5,3.9,3.7,3.9s3.7-1.6,3.7-3.9s-1.5-3.9-3.7-3.9
		C589.1,341.2,587.5,342.8,587.5,345.2z"/>
	<path id="XMLID_66_" class="st0" d="M611.7,339.1v12.1h-2.6v-2.4c-0.8,1.7-2.3,2.4-4.3,2.5c-2.8,0-4.4-1.8-4.4-4.7v-7.5h2.6v6.8
		c0,1.8,1.1,2.9,2.8,2.9c2.1,0,3.3-1.7,3.3-3.8v-6h2.6V339.1z"/>
	<path id="XMLID_68_" class="st0" d="M622.9,339v2.5c-2.4-0.1-4,1.3-4.2,3.4v6.3h-2.6v-12.1h2.6v2.4C619.5,339.9,621,339,622.9,339z
		"/>
	<path id="XMLID_70_" class="st0" d="M653,343.7v7.5h-2.6v-6.8c0-1.8-1.1-3-2.9-3c-2.1,0.1-3.3,1.7-3.3,3.8v6h-2.6v-6.8
		c0-1.8-1.1-3-2.8-3c-2.1,0.1-3.4,1.7-3.4,3.8v6h-2.6v-12.1h2.6v2.3c0.8-1.7,2.4-2.4,4.4-2.4c2.2,0,3.6,1.1,4.2,2.9
		c0.8-2,2.4-2.9,4.6-2.9C651.3,339,653,340.8,653,343.7z"/>
	<path id="XMLID_72_" class="st0" d="M659.8,335.6c0,0.9-0.7,1.5-1.5,1.5c-0.9,0-1.5-0.7-1.5-1.5c0-0.9,0.7-1.6,1.5-1.6
		C659.1,334.1,659.8,334.7,659.8,335.6z M659.6,339.1v12.1H657v-12.1H659.6z"/>
	<path id="XMLID_75_" class="st0" d="M675.5,343.7v7.5h-2.6v-6.8c0-1.8-1.1-2.9-2.9-2.9c-2,0-3.3,1.4-3.4,3.3v6.4H664v-12.1h2.6v2.3
		c0.9-1.7,2.4-2.4,4.5-2.4C673.8,339,675.5,340.8,675.5,343.7z"/>
	<path id="XMLID_77_" class="st0" d="M691,334.3v16.9h-2.6v-2.1c-0.9,1.4-2.3,2.2-4.3,2.2c-3.5,0-5.8-2.5-5.8-6.2
		c0-3.6,2.3-6.1,5.8-6.1c2,0,3.4,0.8,4.3,2.2v-6.9L691,334.3L691,334.3z M688.3,345.2c0-2.3-1.5-4-3.7-4s-3.7,1.7-3.7,4
		s1.5,3.9,3.7,3.9S688.3,347.5,688.3,345.2z"/>
</g>
</svg>
